<svg width="512" height="512" viewBox="0 0 680 680" xmlns="http://www.w3.org/2000/svg">
  <rect width="680" height="680" rx="140" fill="#8B1A1A"/>
  <g stroke="#C94040" stroke-width="2" opacity="0.85">
    <line x1="80" y1="140" x2="600" y2="140"/>
    <line x1="80" y1="220" x2="600" y2="220"/>
    <line x1="80" y1="300" x2="600" y2="300"/>
    <line x1="80" y1="380" x2="600" y2="380"/>
    <line x1="80" y1="460" x2="600" y2="460"/>
    <line x1="80" y1="540" x2="600" y2="540"/>
    <line x1="140" y1="80" x2="140" y2="600"/>
    <line x1="220" y1="80" x2="220" y2="600"/>
    <line x1="300" y1="80" x2="300" y2="600"/>
    <line x1="380" y1="80" x2="380" y2="600"/>
    <line x1="460" y1="80" x2="460" y2="600"/>
    <line x1="540" y1="80" x2="540" y2="600"/>
  </g>
  <rect x="90" y="110" width="500" height="460" rx="6" fill="none" stroke="#FFFFFF" stroke-width="9"/>
  <line x1="330" y1="110" x2="330" y2="570" stroke="#FFFFFF" stroke-width="7"/>
  <line x1="90" y1="350" x2="330" y2="350" stroke="#FFFFFF" stroke-width="7"/>
  <line x1="330" y1="300" x2="590" y2="300" stroke="#FFFFFF" stroke-width="7"/>
  <g stroke="#FFD0D0" stroke-width="3" fill="none" opacity="0.9">
    <line x1="90" y1="600" x2="590" y2="600"/>
    <line x1="90" y1="588" x2="90" y2="612"/>
    <line x1="590" y1="588" x2="590" y2="612"/>
  </g>
  <g stroke="#FFD0D0" stroke-width="3" fill="none" opacity="0.9">
    <line x1="622" y1="110" x2="622" y2="570"/>
    <line x1="610" y1="110" x2="634" y2="110"/>
    <line x1="610" y1="570" x2="634" y2="570"/>
  </g>
  <g transform="translate(460, 450) rotate(-35)">
    <rect x="-16" y="-75" width="32" height="110" rx="4" fill="#F5C842"/>
    <rect x="-16" y="-95" width="32" height="22" rx="3" fill="#FF9999"/>
    <polygon points="-16,35 16,35 0,72" fill="#D4956A"/>
    <polygon points="-4,56 4,56 0,72" fill="#2C2C2C"/>
    <line x1="-16" y1="-73" x2="16" y2="-73" stroke="#D4A832" stroke-width="2"/>
    <line x1="-16" y1="33" x2="16" y2="33" stroke="#D4A832" stroke-width="2"/>
  </g>
  <g stroke="#FFFFFF" stroke-width="4" opacity="0.8">
    <line x1="90" y1="82" x2="90" y2="106"/>
    <line x1="78" y1="94" x2="102" y2="94"/>
    <line x1="590" y1="82" x2="590" y2="106"/>
    <line x1="578" y1="94" x2="602" y2="94"/>
  </g>
</svg>
